<?xml version="1.0" encoding="UTF-8"?>
<svg xmlns="http://www.w3.org/2000/svg" viewBox="0 0 1200 900" font-family="Inter, system-ui, sans-serif" text-rendering="optimizeLegibility">
  <defs>
    <marker id="arrow" viewBox="0 0 10 10" refX="9" refY="5" markerWidth="8" markerHeight="8" orient="auto-start-reverse">
      <path d="M 0 0 L 10 5 L 0 10 z" fill="#3a85ff"/>
    </marker>
    <marker id="arrow-muted" viewBox="0 0 10 10" refX="9" refY="5" markerWidth="6" markerHeight="6" orient="auto-start-reverse">
      <path d="M 0 0 L 10 5 L 0 10 z" fill="#999999"/>
    </marker>
    <marker id="arrow-ok" viewBox="0 0 10 10" refX="9" refY="5" markerWidth="8" markerHeight="8" orient="auto-start-reverse">
      <path d="M 0 0 L 10 5 L 0 10 z" fill="#3aaa6e"/>
    </marker>
    <marker id="arrow-warn" viewBox="0 0 10 10" refX="9" refY="5" markerWidth="8" markerHeight="8" orient="auto-start-reverse">
      <path d="M 0 0 L 10 5 L 0 10 z" fill="#e85d3a"/>
    </marker>
    <style>
      .title       { font-size: 28px; font-weight: 600; fill: #1a1a1a; }
      .subhead     { font-size: 14px; fill: #666666; }
      .panel-title { font-size: 16px; font-weight: 600; fill: #1a1a1a; }
      .panel-tag   { font-size: 11px; fill: #666666; letter-spacing: 0.6px; }
      .body        { font-size: 13px; fill: #1a1a1a; }
      .caption     { font-size: 12px; fill: #666666; }
      .axis        { font-size: 11px; fill: #666666; }
      .lane-label  { font-size: 12px; fill: #666666; font-weight: 500; }
      .mono        { font-family: "IBM Plex Mono", "JetBrains Mono", Menlo, Consolas, monospace; }
      .code        { font-family: "IBM Plex Mono", "JetBrains Mono", Menlo, Consolas, monospace; font-size: 12px; fill: #1a1a1a; }
      .code-sm     { font-family: "IBM Plex Mono", "JetBrains Mono", Menlo, Consolas, monospace; font-size: 11px; fill: #666666; }
      .code-accent { font-family: "IBM Plex Mono", "JetBrains Mono", Menlo, Consolas, monospace; font-size: 13px; fill: #3a85ff; font-weight: 600; }
      .code-ok     { font-family: "IBM Plex Mono", "JetBrains Mono", Menlo, Consolas, monospace; font-size: 12px; fill: #3aaa6e; font-weight: 600; }
      .annot       { font-family: Inter, system-ui, -apple-system, sans-serif; font-size: 16px; fill: #3a85ff; }
      .annot-muted { font-family: Inter, system-ui, -apple-system, sans-serif; font-size: 15px; fill: #666666; }
      .annot-ok    { font-family: Inter, system-ui, -apple-system, sans-serif; font-size: 16px; fill: #3aaa6e; }
      .annot-warn  { font-family: Inter, system-ui, -apple-system, sans-serif; font-size: 16px; fill: #e85d3a; }
      .locator-line  { stroke: #3a85ff; stroke-width: 2; }
      .locator-flag  { fill: #3a85ff; }
      .grid-line     { stroke: #c8c8c0; stroke-width: 1; stroke-dasharray: 2 3; }
      .timeline-base { stroke: #1a1a1a; stroke-width: 1.5; }
    </style>
  </defs>

  <!-- background -->
  <rect width="1200" height="900" fill="#fafaf7"/>

  <!-- title -->
  <text x="60" y="54" class="title">locator gaps → scene lengths</text>
  <text x="60" y="78" class="subhead">scene length = quantized bar gap between consecutive locators. <tspan class="mono">_scene_lengths_in_bars</tspan> turns drag-imprecise time into clean uint8 bars.</text>

  <!-- ========================================================== -->
  <!-- panel 1: input arrangement                                  -->
  <!-- y range: 110..330                                            -->
  <!-- timeline x: 100..980 (880 wide). 28.5s span.                 -->
  <!--   px-per-second = 880 / 28.5 ≈ 30.877                        -->
  <!--   bar_dur_sec ≈ 1.7647 → px-per-bar ≈ 54.49                  -->
  <!-- ========================================================== -->
  <g transform="translate(0, 110)">
    <!-- panel background -->
    <rect x="40" y="0" width="1120" height="220" rx="12" fill="#f0efe9" stroke="#e8e8e3" stroke-width="1"/>

    <!-- panel header -->
    <text x="60" y="26" class="panel-tag">panel 1</text>
    <text x="60" y="46" class="panel-title">input — arrangement with locators</text>
    <text x="60" y="64" class="caption">six locators dropped in ableton, slightly off the bar lines. tracks a/b/c/d hold clips of varying lengths.</text>

    <!-- tempo / bar-dur badge -->
    <g transform="translate(820, 18)">
      <rect width="320" height="56" rx="8" fill="#fafaf7" stroke="#e8e8e3" stroke-width="1"/>
      <text x="14" y="22" class="code"><tspan fill="#666666">project_bpm</tspan> = <tspan fill="#3a85ff" font-weight="600">136</tspan></text>
      <text x="14" y="42" class="code"><tspan fill="#666666">bar_dur_sec</tspan> = 240 / 136 ≈ 1.765</text>
    </g>

    <!-- track lanes a/b/c/d (just decorative — show clip blocks of varied length) -->
    <!-- lane height 18, gap 4. starts at y=92.  -->
    <!-- lane a (y=92..110) -->
    <text x="68" y="105" class="lane-label">a</text>
    <line x1="100" y1="100" x2="980" y2="100" stroke="#e8e8e3" stroke-width="1"/>
    <rect x="100" y="92" width="109" height="16" rx="3" fill="#dbeaff" stroke="#3a85ff" stroke-width="1"/>
    <rect x="209" y="92" width="163" height="16" rx="3" fill="#dbeaff" stroke="#3a85ff" stroke-width="1"/>
    <rect x="372" y="92" width="218" height="16" rx="3" fill="#dbeaff" stroke="#3a85ff" stroke-width="1"/>
    <rect x="590" y="92" width="218" height="16" rx="3" fill="#dbeaff" stroke="#3a85ff" stroke-width="1"/>
    <rect x="808" y="92" width="109" height="16" rx="3" fill="#dbeaff" stroke="#3a85ff" stroke-width="1"/>
    <rect x="917" y="92" width="55" height="16" rx="3" fill="#dbeaff" stroke="#3a85ff" stroke-width="1"/>

    <!-- lane b (y=114..132). 1-bar slice tiling pattern -->
    <text x="68" y="127" class="lane-label">b</text>
    <line x1="100" y1="122" x2="980" y2="122" stroke="#e8e8e3" stroke-width="1"/>
    <rect x="100" y="114" width="54" height="16" rx="3" fill="#dcf2e4" stroke="#3aaa6e" stroke-width="1"/>
    <rect x="155" y="114" width="54" height="16" rx="3" fill="#dcf2e4" stroke="#3aaa6e" stroke-width="1"/>
    <rect x="209" y="114" width="54" height="16" rx="3" fill="#dcf2e4" stroke="#3aaa6e" stroke-width="1"/>
    <rect x="264" y="114" width="54" height="16" rx="3" fill="#dcf2e4" stroke="#3aaa6e" stroke-width="1"/>
    <rect x="318" y="114" width="54" height="16" rx="3" fill="#dcf2e4" stroke="#3aaa6e" stroke-width="1"/>
    <rect x="372" y="114" width="54" height="16" rx="3" fill="#dcf2e4" stroke="#3aaa6e" stroke-width="1"/>
    <rect x="427" y="114" width="54" height="16" rx="3" fill="#dcf2e4" stroke="#3aaa6e" stroke-width="1"/>
    <rect x="481" y="114" width="54" height="16" rx="3" fill="#dcf2e4" stroke="#3aaa6e" stroke-width="1"/>
    <rect x="535" y="114" width="54" height="16" rx="3" fill="#dcf2e4" stroke="#3aaa6e" stroke-width="1"/>
    <rect x="590" y="114" width="54" height="16" rx="3" fill="#dcf2e4" stroke="#3aaa6e" stroke-width="1"/>
    <rect x="644" y="114" width="54" height="16" rx="3" fill="#dcf2e4" stroke="#3aaa6e" stroke-width="1"/>
    <rect x="699" y="114" width="54" height="16" rx="3" fill="#dcf2e4" stroke="#3aaa6e" stroke-width="1"/>
    <rect x="753" y="114" width="54" height="16" rx="3" fill="#dcf2e4" stroke="#3aaa6e" stroke-width="1"/>
    <rect x="808" y="114" width="54" height="16" rx="3" fill="#dcf2e4" stroke="#3aaa6e" stroke-width="1"/>
    <rect x="862" y="114" width="54" height="16" rx="3" fill="#dcf2e4" stroke="#3aaa6e" stroke-width="1"/>
    <rect x="917" y="114" width="54" height="16" rx="3" fill="#dcf2e4" stroke="#3aaa6e" stroke-width="1"/>

    <!-- lane c (y=136..154) varied chunks -->
    <text x="68" y="149" class="lane-label">c</text>
    <line x1="100" y1="144" x2="980" y2="144" stroke="#e8e8e3" stroke-width="1"/>
    <rect x="100" y="136" width="218" height="16" rx="3" fill="#fafaf7" stroke="#1a1a1a" stroke-width="1"/>
    <rect x="372" y="136" width="218" height="16" rx="3" fill="#fafaf7" stroke="#1a1a1a" stroke-width="1"/>
    <rect x="699" y="136" width="218" height="16" rx="3" fill="#fafaf7" stroke="#1a1a1a" stroke-width="1"/>

    <!-- lane d (y=158..176) one long block + tail -->
    <text x="68" y="171" class="lane-label">d</text>
    <line x1="100" y1="166" x2="980" y2="166" stroke="#e8e8e3" stroke-width="1"/>
    <rect x="100" y="158" width="817" height="16" rx="3" fill="#fafaf7" stroke="#1a1a1a" stroke-width="1"/>
    <rect x="917" y="158" width="55" height="16" rx="3" fill="#fafaf7" stroke="#1a1a1a" stroke-width="1"/>

    <!-- timeline baseline -->
    <line x1="100" y1="190" x2="980" y2="190" class="timeline-base"/>

    <!-- second tick marks every 4s: 0, 4, 8, 12, 16, 20, 24, 28 -->
    <!-- px = 100 + t*30.877 -->
    <g class="axis">
      <line x1="100" y1="190" x2="100" y2="195" stroke="#1a1a1a" stroke-width="1.5"/><text x="100" y="208" text-anchor="middle">0s</text>
      <line x1="223.5" y1="190" x2="223.5" y2="194" stroke="#666" stroke-width="1"/><text x="223.5" y="208" text-anchor="middle">4</text>
      <line x1="347.0" y1="190" x2="347.0" y2="194" stroke="#666" stroke-width="1"/><text x="347.0" y="208" text-anchor="middle">8</text>
      <line x1="470.5" y1="190" x2="470.5" y2="194" stroke="#666" stroke-width="1"/><text x="470.5" y="208" text-anchor="middle">12</text>
      <line x1="594.0" y1="190" x2="594.0" y2="194" stroke="#666" stroke-width="1"/><text x="594.0" y="208" text-anchor="middle">16</text>
      <line x1="717.5" y1="190" x2="717.5" y2="194" stroke="#666" stroke-width="1"/><text x="717.5" y="208" text-anchor="middle">20</text>
      <line x1="841.0" y1="190" x2="841.0" y2="194" stroke="#666" stroke-width="1"/><text x="841.0" y="208" text-anchor="middle">24</text>
      <line x1="964.5" y1="190" x2="964.5" y2="194" stroke="#666" stroke-width="1"/><text x="964.5" y="208" text-anchor="middle">28s</text>
    </g>

    <!-- locators (drag-imprecise). times: 0.04, 3.51, 8.85, 15.92, 22.91, 26.45 -->
    <!-- pixel positions (100 + t*30.877): 101.2, 208.4, 373.3, 591.6, 807.4, 916.7 -->
    <!-- locator flags above timeline -->
    <g>
      <line x1="101.2" y1="86" x2="101.2" y2="190" class="locator-line"/>
      <polygon points="101.2,72 117,79 101.2,86" class="locator-flag"/>
      <text x="121" y="80" class="code-sm">t=0.04s</text>

      <line x1="208.4" y1="86" x2="208.4" y2="190" class="locator-line"/>
      <polygon points="208.4,72 224,79 208.4,86" class="locator-flag"/>
      <text x="228" y="80" class="code-sm">t=3.51s</text>

      <line x1="373.3" y1="86" x2="373.3" y2="190" class="locator-line"/>
      <polygon points="373.3,72 389,79 373.3,86" class="locator-flag"/>
      <text x="393" y="80" class="code-sm">t=8.85s</text>

      <line x1="591.6" y1="86" x2="591.6" y2="190" class="locator-line"/>
      <polygon points="591.6,72 607,79 591.6,86" class="locator-flag"/>
      <text x="611" y="80" class="code-sm">t=15.92s</text>

      <line x1="807.4" y1="86" x2="807.4" y2="190" class="locator-line"/>
      <polygon points="807.4,72 823,79 807.4,86" class="locator-flag"/>
      <text x="827" y="80" class="code-sm">t=22.91s</text>

      <line x1="916.7" y1="86" x2="916.7" y2="190" class="locator-line"/>
      <polygon points="916.7,72 932,79 916.7,86" class="locator-flag"/>
      <text x="936" y="80" class="code-sm">t=26.45s</text>
    </g>
  </g>

  <!-- ========================================================== -->
  <!-- panel 2: quantize each locator to nearest bar               -->
  <!-- y range: 350..570                                            -->
  <!-- ========================================================== -->
  <g transform="translate(0, 350)">
    <rect x="40" y="0" width="1120" height="220" rx="12" fill="#f0efe9" stroke="#e8e8e3" stroke-width="1"/>

    <text x="60" y="26" class="panel-tag">panel 2</text>
    <text x="60" y="46" class="panel-title">quantize — round(t / bar_dur_sec)</text>
    <text x="60" y="64" class="caption">light gridlines = bar boundaries. each locator snaps to its nearest integer bar. ~50ms of drag-slop is harmless.</text>

    <!-- formula chip -->
    <g transform="translate(820, 18)">
      <rect width="320" height="56" rx="8" fill="#fafaf7" stroke="#e8e8e3" stroke-width="1"/>
      <text x="14" y="22" class="code"><tspan fill="#3a85ff" font-weight="600">to_bars</tspan>(t) = round(t / 1.765)</text>
      <text x="14" y="42" class="code-sm">int via python round-half-to-even — fine here</text>
    </g>

    <!-- bar grid lines: bar 0, 1, 2, ..., 16. px = 100 + i*54.49 -->
    <g class="grid-line">
      <line x1="100"     y1="92"  x2="100"     y2="180"/>
      <line x1="154.49"  y1="92"  x2="154.49"  y2="180"/>
      <line x1="208.97"  y1="92"  x2="208.97"  y2="180"/>
      <line x1="263.46"  y1="92"  x2="263.46"  y2="180"/>
      <line x1="317.95"  y1="92"  x2="317.95"  y2="180"/>
      <line x1="372.44"  y1="92"  x2="372.44"  y2="180"/>
      <line x1="426.92"  y1="92"  x2="426.92"  y2="180"/>
      <line x1="481.41"  y1="92"  x2="481.41"  y2="180"/>
      <line x1="535.90"  y1="92"  x2="535.90"  y2="180"/>
      <line x1="590.39"  y1="92"  x2="590.39"  y2="180"/>
      <line x1="644.87"  y1="92"  x2="644.87"  y2="180"/>
      <line x1="699.36"  y1="92"  x2="699.36"  y2="180"/>
      <line x1="753.85"  y1="92"  x2="753.85"  y2="180"/>
      <line x1="808.34"  y1="92"  x2="808.34"  y2="180"/>
      <line x1="862.82"  y1="92"  x2="862.82"  y2="180"/>
      <line x1="917.31"  y1="92"  x2="917.31"  y2="180"/>
      <line x1="971.80"  y1="92"  x2="971.80"  y2="180"/>
    </g>

    <!-- bar number labels above the grid -->
    <g class="axis" fill="#666666">
      <text x="100"    y="86" text-anchor="middle">bar 1</text>
      <text x="208.97" y="86" text-anchor="middle">3</text>
      <text x="372.44" y="86" text-anchor="middle">6</text>
      <text x="590.39" y="86" text-anchor="middle">10</text>
      <text x="808.34" y="86" text-anchor="middle">14</text>
      <text x="917.31" y="86" text-anchor="middle">16</text>
      <text x="971.80" y="86" text-anchor="middle">17</text>
    </g>

    <!-- timeline baseline (smaller role here) -->
    <line x1="100" y1="180" x2="980" y2="180" stroke="#1a1a1a" stroke-width="1"/>

    <!-- imprecise locator (faint dashed at original t) → snapped locator (solid blue at bar boundary) -->
    <!-- pairs: (101.2 → 100), (208.4 → 208.97), (373.3 → 372.44), (591.6 → 590.39), (807.4 → 808.34), (916.7 → 917.31) -->
    <!-- "before" mark: small grey dashed line -->
    <g>
      <!-- pair 1 -->
      <line x1="101.2" y1="100" x2="101.2" y2="170" stroke="#999999" stroke-width="1" stroke-dasharray="3 3"/>
      <line x1="100"   y1="100" x2="100"   y2="170" class="locator-line"/>
      <text x="100" y="200" text-anchor="middle" class="code"><tspan fill="#666666">0.04s</tspan> → <tspan fill="#3a85ff" font-weight="600">bar 1</tspan></text>

      <!-- pair 2 -->
      <line x1="208.4"  y1="100" x2="208.4"  y2="170" stroke="#999999" stroke-width="1" stroke-dasharray="3 3"/>
      <line x1="208.97" y1="100" x2="208.97" y2="170" class="locator-line"/>
      <text x="208.97" y="200" text-anchor="middle" class="code"><tspan fill="#666666">3.51s</tspan> → <tspan fill="#3a85ff" font-weight="600">bar 3</tspan></text>

      <!-- pair 3 -->
      <line x1="373.3"  y1="100" x2="373.3"  y2="170" stroke="#999999" stroke-width="1" stroke-dasharray="3 3"/>
      <line x1="372.44" y1="100" x2="372.44" y2="170" class="locator-line"/>
      <text x="372.44" y="200" text-anchor="middle" class="code"><tspan fill="#666666">8.85s</tspan> → <tspan fill="#3a85ff" font-weight="600">bar 6</tspan></text>

      <!-- pair 4 -->
      <line x1="591.6"  y1="100" x2="591.6"  y2="170" stroke="#999999" stroke-width="1" stroke-dasharray="3 3"/>
      <line x1="590.39" y1="100" x2="590.39" y2="170" class="locator-line"/>
      <text x="590.39" y="200" text-anchor="middle" class="code"><tspan fill="#666666">15.92s</tspan> → <tspan fill="#3a85ff" font-weight="600">bar 10</tspan></text>

      <!-- pair 5 -->
      <line x1="807.4"  y1="100" x2="807.4"  y2="170" stroke="#999999" stroke-width="1" stroke-dasharray="3 3"/>
      <line x1="808.34" y1="100" x2="808.34" y2="170" class="locator-line"/>
      <text x="808.34" y="200" text-anchor="middle" class="code"><tspan fill="#666666">22.91s</tspan> → <tspan fill="#3a85ff" font-weight="600">bar 14</tspan></text>

      <!-- pair 6 -->
      <line x1="916.7"  y1="100" x2="916.7"  y2="170" stroke="#999999" stroke-width="1" stroke-dasharray="3 3"/>
      <line x1="917.31" y1="100" x2="917.31" y2="170" class="locator-line"/>
      <text x="917.31" y="200" text-anchor="middle" class="code"><tspan fill="#666666">26.45s</tspan> → <tspan fill="#3a85ff" font-weight="600">bar 16</tspan></text>
    </g>

    <!-- hand-feel callout near pair 4 (off-by-one drag) -->
    <text x="500" y="124" class="annot-muted">~50ms of drag-slop still snaps clean</text>
    <path d="M 568 120 C 580 116, 588 110, 591 102" fill="none" stroke="#999999" stroke-width="1" marker-end="url(#arrow-muted)"/>
  </g>

  <!-- ========================================================== -->
  <!-- panel 3: scene lengths = bar gaps                           -->
  <!-- y range: 590..810                                            -->
  <!-- ========================================================== -->
  <g transform="translate(0, 590)">
    <rect x="40" y="0" width="1120" height="220" rx="12" fill="#dcf2e4" opacity="0.45"/>
    <rect x="40" y="0" width="1120" height="220" rx="12" fill="none" stroke="#3aaa6e" stroke-width="1.5"/>

    <text x="60" y="26" class="panel-tag">panel 3</text>
    <text x="60" y="46" class="panel-title">scene lengths = bar gaps between consecutive locators</text>
    <text x="60" y="64" class="caption">trailing scene closes against arrangement_length_sec (28.36s → bar 16). result clamps to 1..255.</text>

    <!-- result chip -->
    <g transform="translate(740, 18)">
      <rect width="400" height="56" rx="8" fill="#fafaf7" stroke="#3aaa6e" stroke-width="1.5"/>
      <text x="14" y="22" class="code"><tspan fill="#666666">scene_lengths_in_bars</tspan> =</text>
      <text x="14" y="42" class="code-ok">[2, 3, 4, 4, 2, 1]</text>
    </g>

    <!-- bar gridlines (faint) -->
    <g class="grid-line" stroke="#9bbfa6">
      <line x1="100"     y1="92"  x2="100"     y2="160"/>
      <line x1="208.97"  y1="92"  x2="208.97"  y2="160"/>
      <line x1="372.44"  y1="92"  x2="372.44"  y2="160"/>
      <line x1="590.39"  y1="92"  x2="590.39"  y2="160"/>
      <line x1="808.34"  y1="92"  x2="808.34"  y2="160"/>
      <line x1="917.31"  y1="92"  x2="917.31"  y2="160"/>
      <line x1="971.80"  y1="92"  x2="971.80"  y2="160"/>
    </g>

    <!-- locator labels above -->
    <g class="axis" fill="#666666">
      <text x="100"    y="86" text-anchor="middle">bar 1</text>
      <text x="208.97" y="86" text-anchor="middle">3</text>
      <text x="372.44" y="86" text-anchor="middle">6</text>
      <text x="590.39" y="86" text-anchor="middle">10</text>
      <text x="808.34" y="86" text-anchor="middle">14</text>
      <text x="917.31" y="86" text-anchor="middle">16</text>
      <text x="971.80" y="86" text-anchor="middle">end (bar 16)</text>
    </g>

    <!-- locator vertical markers (slim accent) -->
    <line x1="100"    y1="92" x2="100"    y2="160" class="locator-line"/>
    <line x1="208.97" y1="92" x2="208.97" y2="160" class="locator-line"/>
    <line x1="372.44" y1="92" x2="372.44" y2="160" class="locator-line"/>
    <line x1="590.39" y1="92" x2="590.39" y2="160" class="locator-line"/>
    <line x1="808.34" y1="92" x2="808.34" y2="160" class="locator-line"/>
    <line x1="917.31" y1="92" x2="917.31" y2="160" class="locator-line"/>
    <!-- arrangement end (dashed, ok-color) -->
    <line x1="971.80" y1="92" x2="971.80" y2="160" stroke="#3aaa6e" stroke-width="2" stroke-dasharray="4 3"/>

    <!-- scene blocks between locators, filled and labeled -->
    <!-- scene 1: bar1..bar3 (100..208.97), len 2 -->
    <g>
      <rect x="102" y="100" width="104.97" height="50" rx="6" fill="#dcf2e4" stroke="#3aaa6e" stroke-width="1.5"/>
      <text x="153.5" y="122" text-anchor="middle" class="body" font-weight="600">scene 1</text>
      <text x="153.5" y="140" text-anchor="middle" class="code-ok">2 bars</text>
    </g>
    <!-- scene 2: bar3..bar6, len 3 -->
    <g>
      <rect x="210.97" y="100" width="159.47" height="50" rx="6" fill="#dcf2e4" stroke="#3aaa6e" stroke-width="1.5"/>
      <text x="290.7" y="122" text-anchor="middle" class="body" font-weight="600">scene 2</text>
      <text x="290.7" y="140" text-anchor="middle" class="code-ok">3 bars</text>
    </g>
    <!-- scene 3: bar6..bar10, len 4 -->
    <g>
      <rect x="374.44" y="100" width="213.95" height="50" rx="6" fill="#dcf2e4" stroke="#3aaa6e" stroke-width="1.5"/>
      <text x="481.4" y="122" text-anchor="middle" class="body" font-weight="600">scene 3</text>
      <text x="481.4" y="140" text-anchor="middle" class="code-ok">4 bars</text>
    </g>
    <!-- scene 4: bar10..bar14, len 4 -->
    <g>
      <rect x="592.39" y="100" width="213.95" height="50" rx="6" fill="#dcf2e4" stroke="#3aaa6e" stroke-width="1.5"/>
      <text x="699.4" y="122" text-anchor="middle" class="body" font-weight="600">scene 4</text>
      <text x="699.4" y="140" text-anchor="middle" class="code-ok">4 bars</text>
    </g>
    <!-- scene 5: bar14..bar16, len 2 -->
    <g>
      <rect x="810.34" y="100" width="104.97" height="50" rx="6" fill="#dcf2e4" stroke="#3aaa6e" stroke-width="1.5"/>
      <text x="862.8" y="122" text-anchor="middle" class="body" font-weight="600">scene 5</text>
      <text x="862.8" y="140" text-anchor="middle" class="code-ok">2 bars</text>
    </g>
    <!-- scene 6: bar16..bar17, len 1 (trailing) -->
    <g>
      <rect x="919.31" y="100" width="50.49" height="50" rx="6" fill="#dcf2e4" stroke="#3aaa6e" stroke-width="1.5" stroke-dasharray="4 3"/>
      <text x="944.6" y="122" text-anchor="middle" class="body" font-weight="600">scene 6</text>
      <text x="944.6" y="140" text-anchor="middle" class="code-ok">1 bar</text>
    </g>

    <!-- bracket annotations: gap arithmetic underneath -->
    <g class="code-sm" fill="#3aaa6e">
      <text x="153.5" y="178" text-anchor="middle">3 − 1</text>
      <text x="290.7" y="178" text-anchor="middle">6 − 3</text>
      <text x="481.4" y="178" text-anchor="middle">10 − 6</text>
      <text x="699.4" y="178" text-anchor="middle">14 − 10</text>
      <text x="862.8" y="178" text-anchor="middle">16 − 14</text>
      <text x="944.6" y="178" text-anchor="middle">17 − 16</text>
    </g>

    <!-- hand callout: trailing scene -->
    <text x="850" y="200" class="annot-ok">trailing gap closes vs. arrangement_length</text>
    <path d="M 940 196 C 945 188, 947 180, 945 165" fill="none" stroke="#3aaa6e" stroke-width="1" marker-end="url(#arrow-ok)"/>
  </g>

  <!-- ========================================================== -->
  <!-- bottom band: edge cases + slice-vs-scene callout            -->
  <!-- y: 830..885                                                  -->
  <!-- ========================================================== -->

  <!-- edge cases card (left) -->
  <g transform="translate(40, 830)">
    <rect width="700" height="55" rx="8" fill="#fafaf7" stroke="#e8e8e3" stroke-width="1"/>
    <text x="14" y="20" class="caption" font-weight="600" fill="#1a1a1a">edge cases</text>
    <text x="14" y="38" class="code-sm">— single locator, no length → defaults to 2 bars</text>
    <text x="14" y="50" class="code-sm">— trailing gap ≤ 0 → median of preceding gaps</text>
    <text x="380" y="38" class="code-sm">— non-pow-of-2 gaps preserved (3-bar = take five says hi)</text>
    <text x="380" y="50" class="code-sm">— result clamped to 1..255 (uint8 pattern-bars)</text>
  </g>

  <!-- tiny boxing glove nod -->
  <text x="1180" y="892" font-size="12" fill="#999999" text-anchor="end">🥊</text>
</svg>
